<?xml version="1.0" encoding="iso-8859-1"?>
<!-- Uploaded to: SVG Repo, www.svgrepo.com, Generator: SVG Repo Mixer Tools -->
<!DOCTYPE svg PUBLIC "-//W3C//DTD SVG 1.1//EN" "http://www.w3.org/Graphics/SVG/1.1/DTD/svg11.dtd">
<svg fill="#000000" version="1.1" id="Capa_1" xmlns="http://www.w3.org/2000/svg" xmlns:xlink="http://www.w3.org/1999/xlink" 
	 width="800px" height="800px" viewBox="0 0 35 35" xml:space="preserve">
<g>
	<g>
		<path d="M0,0v35h35V0H0z M33,2v26.666H2V2H33z"/>
		<rect x="11.457" y="5.979" width="5.127" height="5.127"/>
		<rect x="11.457" y="12.937" width="5.127" height="5.127"/>
		<rect x="11.457" y="19.895" width="5.127" height="5.127"/>
		<rect x="18.416" y="5.979" width="5.127" height="5.127"/>
		<rect x="18.416" y="12.937" width="5.127" height="5.127"/>
		<rect x="18.416" y="19.895" width="5.127" height="5.127"/>
		<rect x="25.373" y="5.979" width="5.127" height="5.127"/>
		<rect x="25.373" y="12.937" width="5.127" height="5.127"/>
		<rect x="25.373" y="19.895" width="5.127" height="5.127"/>
		<rect x="4.5" y="5.979" width="5.127" height="5.127"/>
		<rect x="4.5" y="12.937" width="5.127" height="5.127"/>
		<rect x="4.5" y="19.895" width="5.127" height="5.127"/>
	</g>
</g>
</svg>